# xmcd CD database file
#
# Track frame offsets:
#	150
#	14635
#	29530
#	40066
#	54126
#	69060
#	82257
#	96821
#	110553
#	125384
#	137624
#	149474
#	160665
#	174703
#	187346
#	200638
#	214182
#	225520
#	240179
#	254423
#
# Disc length: 3526 seconds
#
# Revision: 1
# Processed by: cddbd v1.5.1PL2 Copyright (c) Steve Scherf et al.
# Submitted via: CDex 1.51
#
DISCID=1a0dc414
DTITLE=Ella Fitzgerald - It's Only A Paper Moon
DYEAR=2005
DGENRE=Jazz
TTITLE0=Can Anyone Explain
TTITLE1=I've Got The World S Sing
TTITLE2=Who Walks in When I walk Out
TTITLE3=Dream A Little Dream Of Me
TTITLE4=Sentimental Journey
TTITLE5=You Won't Be Satisfied
TTITLE6=Guilty
TTITLE7=That's My Desire
TTITLE8=How High The Moon
TTITLE9=My Bady Likes To Bebop
TTITLE10=It's Only A Paper Moon
TTITLE11=Robbins Nest
TTITLE12=Black Coffee
TTITLE13=Can't Help Lovin' Dat Man
TTITLE14=I'm Just Lucky So-And-So
TTITLE15=No Sense
TTITLE16=Flying Home
TTITLE17=The Frim Fram Sauce
TTITLE18=Basin Street Blues
TTITLE19=Almost Like Being Love
EXTD=YEAR: 2005
EXTT0=
EXTT1=
EXTT2=
EXTT3=
EXTT4=
EXTT5=
EXTT6=
EXTT7=
EXTT8=
EXTT9=
EXTT10=
EXTT11=
EXTT12=
EXTT13=
EXTT14=
EXTT15=
EXTT16=
EXTT17=
EXTT18=
EXTT19=
PLAYORDER=
